<svg width="25" height="25" viewBox="0 0 25 25" fill="none" xmlns="http://www.w3.org/2000/svg">
<mask id="mask0_144_39" style="mask-type:alpha" maskUnits="userSpaceOnUse" x="0" y="0" width="25" height="25">
<rect x="0.306641" y="0.979553" width="24" height="24" fill="#D9D9D9"/>
</mask>
<g mask="url(#mask0_144_39)">
<path d="M11.3066 20.4046V13.5546L5.30664 10.0796V16.9296L11.3066 20.4046ZM13.3066 20.4046L19.3066 16.9296V10.0796L13.3066 13.5546V20.4046ZM12.3066 11.8296L18.2316 8.40455L12.3066 4.97955L6.38164 8.40455L12.3066 11.8296ZM4.30664 18.6796C3.98997 18.4962 3.74414 18.2546 3.56914 17.9546C3.39414 17.6546 3.30664 17.3212 3.30664 16.9546V9.00455C3.30664 8.63789 3.39414 8.30455 3.56914 8.00455C3.74414 7.70455 3.98997 7.46289 4.30664 7.27955L11.3066 3.25455C11.6233 3.07122 11.9566 2.97955 12.3066 2.97955C12.6566 2.97955 12.99 3.07122 13.3066 3.25455L20.3066 7.27955C20.6233 7.46289 20.8691 7.70455 21.0441 8.00455C21.2191 8.30455 21.3066 8.63789 21.3066 9.00455V16.9546C21.3066 17.3212 21.2191 17.6546 21.0441 17.9546C20.8691 18.2546 20.6233 18.4962 20.3066 18.6796L13.3066 22.7046C12.99 22.8879 12.6566 22.9796 12.3066 22.9796C11.9566 22.9796 11.6233 22.8879 11.3066 22.7046L4.30664 18.6796Z" fill="#1C1B1F"/>
</g>
</svg>
