<svg width="35" height="35" viewBox="0 0 35 35" fill="none" xmlns="http://www.w3.org/2000/svg">
<path fill-rule="evenodd" clip-rule="evenodd" d="M31.095 8.14447C31.2795 7.95524 31.5825 7.9514 31.7717 8.13591L34.8555 11.1426C35.0448 11.3271 35.0486 11.6301 34.8641 11.8193C34.6796 12.0085 34.3766 12.0124 34.1874 11.8279L33.6287 11.2832C32.9944 10.6647 31.9221 11.1163 31.9015 12.0021C31.8309 15.0352 31.6046 17.4646 31.2385 19.3851C30.7424 21.9877 29.9777 23.7222 28.9299 24.7409C27.85 25.7908 26.5357 26.0197 25.1276 25.7651C23.7457 25.5152 22.2357 24.7956 20.6734 23.9093C19.7315 23.3749 18.7397 22.7611 17.7289 22.1356C17.0686 21.727 16.4002 21.3134 15.7325 20.9137C14.0232 19.8905 12.2806 18.9344 10.542 18.2806C8.8039 17.627 7.0957 17.2857 5.45004 17.4663C3.93896 17.6321 2.45103 18.241 1.01598 19.5054C0.817679 19.6801 0.515269 19.6756 0.331942 19.4852V19.4852C0.148616 19.2948 0.153788 18.9908 0.351447 18.8154C1.93637 17.4086 3.61711 16.7046 5.34564 16.5149C7.1919 16.3123 9.05786 16.7 10.8789 17.3848C12.6996 18.0694 14.5013 19.0612 16.2241 20.0924C16.9207 20.5094 17.5988 20.9293 18.2612 21.3393C19.2551 21.9546 20.2135 22.548 21.1457 23.0768C22.694 23.9552 24.0852 24.6039 25.2979 24.8232C26.4845 25.0378 27.4583 24.8367 28.2627 24.0547C29.0992 23.2414 29.8149 21.742 30.2984 19.2059C30.6473 17.3753 30.869 15.0392 30.9418 12.0967C30.9639 11.201 29.8827 10.7589 29.2572 11.4004L28.7736 11.8964C28.5891 12.0856 28.2862 12.0895 28.0969 11.905C27.9077 11.7205 27.9038 11.4175 28.0884 11.2282L31.095 8.14447Z" fill="#02B9EF"/>
</svg>
