<svg width="25" height="25" viewBox="0 0 25 25" fill="none" xmlns="http://www.w3.org/2000/svg">
<mask id="mask0_144_27" style="mask-type:alpha" maskUnits="userSpaceOnUse" x="0" y="0" width="25" height="25">
<rect x="0.736816" y="0.755768" width="24" height="24" fill="#D9D9D9"/>
</mask>
<g mask="url(#mask0_144_27)">
<path d="M1.73682 18.7557C1.45348 18.7557 1.21598 18.6599 1.02432 18.4682C0.83265 18.2766 0.736816 18.0391 0.736816 17.7557V17.1807C0.736816 16.4641 1.10348 15.8807 1.83682 15.4307C2.57015 14.9807 3.53682 14.7557 4.73682 14.7557C4.95348 14.7557 5.16182 14.7599 5.36182 14.7682C5.56182 14.7766 5.75348 14.7974 5.93682 14.8307C5.70348 15.1807 5.52848 15.5474 5.41182 15.9307C5.29515 16.3141 5.23682 16.7141 5.23682 17.1307V18.7557H1.73682ZM7.73682 18.7557C7.45348 18.7557 7.21598 18.6599 7.02432 18.4682C6.83265 18.2766 6.73682 18.0391 6.73682 17.7557V17.1307C6.73682 16.5974 6.88265 16.1099 7.17432 15.6682C7.46598 15.2266 7.87848 14.8391 8.41182 14.5057C8.94515 14.1724 9.58265 13.9224 10.3243 13.7557C11.066 13.5891 11.8701 13.5057 12.7368 13.5057C13.6201 13.5057 14.4326 13.5891 15.1743 13.7557C15.916 13.9224 16.5535 14.1724 17.0868 14.5057C17.6202 14.8391 18.0285 15.2266 18.3118 15.6682C18.5952 16.1099 18.7368 16.5974 18.7368 17.1307V17.7557C18.7368 18.0391 18.641 18.2766 18.4493 18.4682C18.2576 18.6599 18.0201 18.7557 17.7368 18.7557H7.73682ZM20.2368 18.7557V17.1307C20.2368 16.6974 20.1826 16.2891 20.0743 15.9057C19.966 15.5224 19.8035 15.1641 19.5868 14.8307C19.7702 14.7974 19.9577 14.7766 20.1493 14.7682C20.341 14.7599 20.5368 14.7557 20.7368 14.7557C21.9368 14.7557 22.9035 14.9766 23.6368 15.4182C24.3701 15.8599 24.7368 16.4474 24.7368 17.1807V17.7557C24.7368 18.0391 24.641 18.2766 24.4493 18.4682C24.2576 18.6599 24.0201 18.7557 23.7368 18.7557H20.2368ZM8.86182 16.7557H16.6368C16.4702 16.4224 16.0076 16.1307 15.2493 15.8807C14.491 15.6307 13.6535 15.5057 12.7368 15.5057C11.8201 15.5057 10.9826 15.6307 10.2243 15.8807C9.46598 16.1307 9.01182 16.4224 8.86182 16.7557ZM4.73682 13.7557C4.18682 13.7557 3.71598 13.5599 3.32432 13.1682C2.93265 12.7766 2.73682 12.3057 2.73682 11.7557C2.73682 11.1891 2.93265 10.7141 3.32432 10.3307C3.71598 9.9474 4.18682 9.75574 4.73682 9.75574C5.30348 9.75574 5.77848 9.9474 6.16182 10.3307C6.54515 10.7141 6.73682 11.1891 6.73682 11.7557C6.73682 12.3057 6.54515 12.7766 6.16182 13.1682C5.77848 13.5599 5.30348 13.7557 4.73682 13.7557ZM20.7368 13.7557C20.1868 13.7557 19.716 13.5599 19.3243 13.1682C18.9326 12.7766 18.7368 12.3057 18.7368 11.7557C18.7368 11.1891 18.9326 10.7141 19.3243 10.3307C19.716 9.9474 20.1868 9.75574 20.7368 9.75574C21.3035 9.75574 21.7785 9.9474 22.1618 10.3307C22.5452 10.7141 22.7368 11.1891 22.7368 11.7557C22.7368 12.3057 22.5452 12.7766 22.1618 13.1682C21.7785 13.5599 21.3035 13.7557 20.7368 13.7557ZM12.7368 12.7557C11.9035 12.7557 11.1951 12.4641 10.6118 11.8807C10.0285 11.2974 9.73682 10.5891 9.73682 9.75574C9.73682 8.90574 10.0285 8.19324 10.6118 7.61824C11.1951 7.04324 11.9035 6.75574 12.7368 6.75574C13.5868 6.75574 14.2993 7.04324 14.8743 7.61824C15.4493 8.19324 15.7368 8.90574 15.7368 9.75574C15.7368 10.5891 15.4493 11.2974 14.8743 11.8807C14.2993 12.4641 13.5868 12.7557 12.7368 12.7557ZM12.7368 10.7557C13.0201 10.7557 13.2577 10.6599 13.4493 10.4682C13.641 10.2766 13.7368 10.0391 13.7368 9.75574C13.7368 9.4724 13.641 9.2349 13.4493 9.04324C13.2577 8.85157 13.0201 8.75574 12.7368 8.75574C12.4535 8.75574 12.216 8.85157 12.0243 9.04324C11.8327 9.2349 11.7368 9.4724 11.7368 9.75574C11.7368 10.0391 11.8327 10.2766 12.0243 10.4682C12.216 10.6599 12.4535 10.7557 12.7368 10.7557Z" fill="#1C1B1F"/>
</g>
</svg>
