<svg width="24" height="24" viewBox="0 0 24 24" fill="none" xmlns="http://www.w3.org/2000/svg">
<path d="M7.82031 7.10547C8.02742 7.10547 8.19531 6.93758 8.19531 6.73047C8.19531 6.52336 8.02742 6.35547 7.82031 6.35547C7.61321 6.35547 7.44531 6.52336 7.44531 6.73047C7.44531 6.93758 7.61321 7.10547 7.82031 7.10547Z" fill="white"/>
<path d="M7.82031 8.46523V15.9552M16.5553 15.9552V11.1502C16.554 10.3789 16.247 9.63946 15.7015 9.09401C15.1561 8.54857 14.4167 8.24156 13.6453 8.24023C12.8731 8.24023 12.1324 8.54666 11.5859 9.09225C11.0393 9.63784 10.7316 10.378 10.7303 11.1502M10.7303 11.1502V15.9552M10.7303 11.1502V8.46523" stroke="white" stroke-width="0.5" stroke-linecap="round" stroke-linejoin="round"/>
<path d="M20.25 2.75H3.75C3.48478 2.75 3.23043 2.85536 3.04289 3.04289C2.85536 3.23043 2.75 3.48478 2.75 3.75V20.25C2.75 20.5152 2.85536 20.7696 3.04289 20.9571C3.23043 21.1446 3.48478 21.25 3.75 21.25H20.25C20.5152 21.25 20.7696 21.1446 20.9571 20.9571C21.1446 20.7696 21.25 20.5152 21.25 20.25V3.75C21.25 3.48478 21.1446 3.23043 20.9571 3.04289C20.7696 2.85536 20.5152 2.75 20.25 2.75Z" stroke="white" stroke-width="0.5" stroke-linecap="round" stroke-linejoin="round"/>
</svg>
