<svg width="24" height="24" viewBox="0 0 24 24" fill="none" xmlns="http://www.w3.org/2000/svg">
<mask id="mask0_309_31" style="mask-type:alpha" maskUnits="userSpaceOnUse" x="0" y="0" width="24" height="24">
<rect x="0.1" y="0.1" width="23.8" height="23.8" fill="#D9D9D9" stroke="black" stroke-width="0.2"/>
</mask>
<g mask="url(#mask0_309_31)">
<path d="M7.24187 17.4574L5.55225 17.9333L5.59955 16.5142L7.04325 14.0251L7.0868 13.95H7C5.91337 13.95 4.98439 13.5637 4.21036 12.7896C3.43632 12.0156 3.05 11.0866 3.05 10C3.05 8.91337 3.43632 7.98439 4.21036 7.21036C4.98439 6.43632 5.91337 6.05 7 6.05C8.08663 6.05 9.01561 6.43632 9.78964 7.21036C10.5637 7.98439 10.95 8.91337 10.95 10C10.95 10.3794 10.9046 10.7289 10.8144 11.0489C10.724 11.3694 10.5884 11.6777 10.4073 11.9739L10.4073 11.9739L10.4067 11.975L7.24187 17.4574ZM7 11.55C7.42978 11.55 7.79671 11.399 8.09786 11.0979C8.39901 10.7967 8.55 10.4298 8.55 10C8.55 9.57022 8.39901 9.20329 8.09786 8.90214C7.79671 8.60099 7.42978 8.45 7 8.45C6.57022 8.45 6.20329 8.60099 5.90214 8.90214C5.60099 9.20329 5.45 9.57022 5.45 10C5.45 10.4298 5.60099 10.7967 5.90214 11.0979C6.20329 11.399 6.57022 11.55 7 11.55Z" fill="#00B5EC" stroke="black" stroke-width="0.1"/>
<path d="M16.2419 17.4574L14.5522 17.9333L14.5996 16.5142L16.0433 14.0251L16.0868 13.95H16C14.9134 13.95 13.9844 13.5637 13.2104 12.7896C12.4363 12.0156 12.05 11.0866 12.05 10C12.05 8.91337 12.4363 7.98439 13.2104 7.21036C13.9844 6.43632 14.9134 6.05 16 6.05C17.0866 6.05 18.0156 6.43632 18.7896 7.21036C19.5637 7.98439 19.95 8.91337 19.95 10C19.95 10.3794 19.9046 10.7289 19.8144 11.0489C19.724 11.3694 19.5884 11.6777 19.4073 11.9739L19.4073 11.9739L19.4067 11.975L16.2419 17.4574ZM16 11.55C16.4298 11.55 16.7967 11.399 17.0979 11.0979C17.399 10.7967 17.55 10.4298 17.55 10C17.55 9.57022 17.399 9.20329 17.0979 8.90214C16.7967 8.60099 16.4298 8.45 16 8.45C15.5702 8.45 15.2033 8.60099 14.9021 8.90214C14.601 9.20329 14.45 9.57022 14.45 10C14.45 10.4298 14.601 10.7967 14.9021 11.0979C15.2033 11.399 15.5702 11.55 16 11.55Z" fill="#00B5EC" stroke="black" stroke-width="0.1"/>
</g>
</svg>
