<?xml version="1.0" standalone="no"?>
<!DOCTYPE svg PUBLIC "-//W3C//DTD SVG 20010904//EN"
 "http://www.w3.org/TR/2001/REC-SVG-20010904/DTD/svg10.dtd">
<svg version="1.0" xmlns="http://www.w3.org/2000/svg"
 width="1000.000000pt" height="1000.000000pt" viewBox="0 0 1000.000000 1000.000000"
 preserveAspectRatio="xMidYMid meet">
<metadata>
Created by potrace 1.14, written by Peter Selinger 2001-2017
</metadata>
<g transform="translate(0.000000,1000.000000) scale(0.100000,-0.100000)"
fill="#000000" stroke="none">
<path d="M2706 7435 c-205 -26 -527 -108 -722 -184 -270 -105 -456 -231 -669
-453 -584 -606 -822 -1480 -628 -2303 86 -364 262 -717 520 -1041 48 -61 117
-149 153 -195 125 -161 376 -396 555 -520 28 -18 52 -37 55 -40 13 -14 220
-134 317 -183 641 -322 1391 -359 2053 -99 170 67 432 204 486 254 11 10 24
19 28 19 12 0 180 128 332 254 76 64 142 116 147 116 4 0 7 -95 7 -211 0 -125
4 -218 10 -230 15 -27 63 -49 110 -49 39 0 40 -1 40 -36 0 -20 9 -52 21 -71
20 -32 118 -111 200 -161 92 -56 220 -68 304 -28 84 39 112 76 185 242 36 81
36 82 61 68 13 -7 43 -13 67 -14 40 0 42 -1 42 -31 0 -55 36 -100 138 -174
154 -110 269 -138 386 -94 112 41 137 76 533 744 53 88 105 176 118 195 23 36
182 302 224 374 12 23 45 77 71 121 229 383 475 815 645 1130 74 138 262 510
270 535 4 14 13 32 20 40 8 8 14 20 16 25 1 6 3 15 5 20 38 121 42 140 25 153
-12 10 -12 12 -1 6 12 -6 13 -4 3 7 -7 7 -13 25 -13 40 0 38 15 73 138 329 80
166 93 198 81 205 -5 4 -9 -1 -9 -9 0 -9 -6 -16 -14 -16 -7 0 -25 -17 -40 -37
-14 -21 -46 -63 -71 -93 -72 -90 -207 -274 -689 -945 -161 -224 -195 -267
-159 -205 52 90 1199 2001 1291 2150 57 92 -133 -168 -1108 -1520 -1179 -1634
-1244 -1723 -1247 -1712 -1 4 -4 138 -6 297 -6 346 -24 460 -91 578 -64 114
-75 135 -87 175 -25 85 -53 79 -106 -24 l-38 -74 -5 230 -5 230 -169 -327
c-93 -181 -227 -440 -299 -576 -130 -245 -131 -248 -145 -221 -8 15 -18 32
-23 38 -47 59 -60 78 -83 124 -15 29 -33 55 -42 59 -19 7 -68 -14 -91 -39 -18
-20 -18 -16 -23 125 l-5 145 -240 -192 c-931 -744 -1191 -949 -1275 -1005
-195 -131 -488 -254 -717 -300 -153 -31 -255 -41 -423 -41 -323 0 -598 62
-883 198 -158 75 -222 120 -324 223 -253 259 -435 618 -492 974 -26 159 -29
197 -29 360 -1 370 75 660 262 1010 6 11 38 61 70 110 205 309 478 549 809
710 120 58 383 155 422 155 19 0 311 97 345 115 14 7 59 29 100 49 136 65 235
130 225 146 -3 5 -1 11 5 15 6 4 8 11 4 16 -3 5 4 28 15 50 12 22 21 46 21 54
0 8 6 15 12 15 7 0 4 8 -7 20 -29 28 -125 49 -258 57 -104 5 -115 8 -90 18 60
25 181 48 282 54 l106 7 -95 22 c-198 46 -276 54 -545 58 -180 2 -294 -1 -369
-11z m302 -236 c-41 -24 -225 -84 -368 -120 -559 -143 -1007 -473 -1292 -951
-193 -326 -287 -668 -288 -1050 0 -324 62 -611 194 -892 93 -199 195 -345 413
-592 383 -432 790 -689 1266 -798 252 -58 611 -62 861 -10 380 79 644 213
1031 524 39 31 158 126 265 211 107 85 302 240 433 344 131 105 242 192 247
193 6 2 10 -29 10 -76 0 -91 17 -123 74 -142 22 -7 36 -19 40 -34 3 -13 22
-37 41 -52 19 -16 60 -50 92 -76 31 -27 64 -49 75 -49 10 -1 24 -2 31 -2 31
-2 76 16 109 43 41 34 89 119 283 502 l130 256 5 -420 5 -420 28 -24 c15 -13
37 -24 48 -24 13 0 24 -12 35 -39 10 -25 30 -49 56 -66 23 -15 57 -44 77 -65
42 -44 94 -62 148 -50 20 5 39 7 42 5 2 -3 -97 -173 -220 -380 l-224 -374 -63
-1 -64 0 6 58 c14 141 16 251 6 302 -15 80 -65 177 -105 203 -19 12 -42 39
-51 60 -20 43 -57 77 -85 77 -14 0 -19 7 -19 26 0 51 -59 91 -125 84 -40 -3
-66 -49 -160 -280 -52 -129 -123 -301 -157 -382 l-61 -148 -79 0 -78 0 0 223
c0 307 -22 399 -115 490 -24 23 -55 61 -69 85 -15 24 -42 50 -60 59 -23 11
-36 25 -40 44 -10 53 -67 88 -120 75 -14 -3 -134 -97 -268 -208 -134 -111
-288 -235 -343 -276 -735 -544 -1712 -643 -2542 -257 -221 103 -411 231 -548
370 -272 274 -460 608 -571 1014 -19 69 -37 137 -39 151 -70 376 -60 773 28
1120 52 201 146 435 244 605 47 80 180 286 192 295 4 3 36 41 73 85 72 87 223
237 303 302 279 227 673 376 1205 456 14 3 36 5 50 5 21 1 22 0 8 -9z"/>
</g>
</svg>
