<svg width="51" height="51" viewBox="0 0 51 51" fill="none" xmlns="http://www.w3.org/2000/svg">
<mask id="mask0_331_29" style="mask-type:alpha" maskUnits="userSpaceOnUse" x="0" y="0" width="51" height="51">
<rect x="0.550781" y="0.732422" width="50" height="50" fill="#D9D9D9"/>
</mask>
<g mask="url(#mask0_331_29)">
<path d="M41.8008 27.6586L9.71745 41.2002C9.023 41.478 8.36328 41.4172 7.73828 41.0179C7.11328 40.6186 6.80078 40.037 6.80078 39.2732V12.1898C6.80078 11.4259 7.11328 10.8443 7.73828 10.445C8.36328 10.0457 9.023 9.98496 9.71745 10.2627L41.8008 23.8044C42.6688 24.1863 43.1029 24.8287 43.1029 25.7315C43.1029 26.6343 42.6688 27.2766 41.8008 27.6586ZM10.9674 36.1482L35.6549 25.7315L10.9674 15.3148V22.6065L23.4674 25.7315L10.9674 28.8565V36.1482Z" fill="#D9D9D9"/>
</g>
</svg>
