<svg width="24" height="24" viewBox="0 0 24 24" fill="none" xmlns="http://www.w3.org/2000/svg">
<mask id="mask0_145_57" style="mask-type:alpha" maskUnits="userSpaceOnUse" x="0" y="0" width="24" height="24">
<rect width="24" height="24" fill="#D9D9D9"/>
</mask>
<g mask="url(#mask0_145_57)">
<path d="M8.75 22.425C7.98333 22.425 7.29583 22.225 6.6875 21.825C6.07917 21.425 5.60833 20.875 5.275 20.175C5.00833 20.525 4.67083 20.7958 4.2625 20.9875C3.85417 21.1792 3.43333 21.275 3 21.275C2.15 21.275 1.4375 20.9833 0.8625 20.4C0.2875 19.8167 0 19.1083 0 18.275C0 17.5583 0.233333 16.9125 0.7 16.3375C1.16667 15.7625 1.75833 15.4333 2.475 15.35C2.24167 15.0167 2.0625 14.6625 1.9375 14.2875C1.8125 13.9125 1.75 13.5167 1.75 13.1C1.75 12.8167 1.78333 12.5333 1.85 12.25C1.91667 11.9667 2.01667 11.6917 2.15 11.425C2.28333 11.175 2.47917 11.0042 2.7375 10.9125C2.99583 10.8208 3.25 10.8417 3.5 10.975C3.75 11.1083 3.925 11.3042 4.025 11.5625C4.125 11.8208 4.10833 12.075 3.975 12.325C3.90833 12.4583 3.85833 12.5917 3.825 12.725C3.79167 12.8583 3.775 12.9917 3.775 13.125C3.775 13.975 4.10417 14.525 4.7625 14.775C5.42083 15.025 6.08333 15.2083 6.75 15.325C6.88333 15.3583 7.00833 15.4083 7.125 15.475C7.24167 15.5417 7.33333 15.6333 7.4 15.75C7.46667 15.8667 7.50417 15.9875 7.5125 16.1125C7.52083 16.2375 7.5 16.3667 7.45 16.5C7.28333 16.95 7.15 17.3333 7.05 17.65C6.95 17.9667 6.9 18.2667 6.9 18.55C6.9 19.05 7.07917 19.4875 7.4375 19.8625C7.79583 20.2375 8.23333 20.425 8.75 20.425C9.28333 20.425 9.74167 20.2208 10.125 19.8125C10.5083 19.4042 10.8292 18.8958 11.0875 18.2875C11.3458 17.6792 11.5542 17.0333 11.7125 16.35C11.8708 15.6667 12 15.05 12.1 14.5C12.15 14.2167 12.2917 13.9958 12.525 13.8375C12.7583 13.6792 13.0083 13.6417 13.275 13.725C13.5583 13.8083 13.7708 13.975 13.9125 14.225C14.0542 14.475 14.0917 14.7417 14.025 15.025C13.875 15.7917 13.6833 16.6083 13.45 17.475C13.2167 18.3417 12.9042 19.1417 12.5125 19.875C12.1208 20.6083 11.6208 21.2167 11.0125 21.7C10.4042 22.1833 9.65 22.425 8.75 22.425ZM15.275 22.425C14.975 22.425 14.7292 22.3292 14.5375 22.1375C14.3458 21.9458 14.25 21.7083 14.25 21.425C14.25 21.1417 14.3458 20.9042 14.5375 20.7125C14.7292 20.5208 14.9667 20.425 15.25 20.425C15.7833 20.425 16.2292 20.2375 16.5875 19.8625C16.9458 19.4875 17.125 19.0417 17.125 18.525C17.125 18.2417 17.0708 17.9292 16.9625 17.5875C16.8542 17.2458 16.7083 16.8333 16.525 16.35C16.4917 16.2333 16.475 16.1208 16.475 16.0125C16.475 15.9042 16.5083 15.8 16.575 15.7C16.6417 15.6 16.7167 15.5208 16.8 15.4625C16.8833 15.4042 16.9917 15.3583 17.125 15.325C17.8083 15.2083 18.5 15.0292 19.2 14.7875C19.9 14.5458 20.25 13.9833 20.25 13.1C20.25 12.4333 20.0042 11.95 19.5125 11.65C19.0208 11.35 18.4833 11.2 17.9 11.2C17.3167 11.2 16.6417 11.3 15.875 11.5C15.1083 11.7 14.2333 11.9583 13.25 12.275C12.9667 12.3583 12.6917 12.3458 12.425 12.2375C12.1583 12.1292 11.9833 11.9333 11.9 11.65C11.8167 11.3667 11.8583 11.1 12.025 10.85C12.1917 10.6 12.4167 10.4333 12.7 10.35C13.75 10.0167 14.7 9.74165 15.55 9.52499C16.4 9.30832 17.1917 9.19999 17.925 9.19999C19.075 9.19999 20.0833 9.54165 20.95 10.225C21.8167 10.9083 22.25 11.8667 22.25 13.1C22.25 13.5167 22.1875 13.9125 22.0625 14.2875C21.9375 14.6625 21.7583 15.0167 21.525 15.35C22.2417 15.4333 22.8333 15.7625 23.3 16.3375C23.7667 16.9125 24 17.5583 24 18.275C24 19.1083 23.7125 19.8167 23.1375 20.4C22.5625 20.9833 21.85 21.275 21 21.275C20.5667 21.275 20.1458 21.1792 19.7375 20.9875C19.3292 20.7958 18.9917 20.525 18.725 20.175C18.3917 20.8583 17.925 21.4 17.325 21.8C16.725 22.2 16.0417 22.4083 15.275 22.425ZM9.225 14.525C7.94167 13.3583 6.91667 12.3 6.15 11.35C5.38333 10.4 5 9.37499 5 8.27499C5 7.19165 5.37083 6.27915 6.1125 5.53749C6.85417 4.79582 7.76667 4.42499 8.85 4.42499C8.91667 4.42499 8.975 4.42915 9.025 4.43749C9.075 4.44582 9.13333 4.44999 9.2 4.44999C9.13333 4.28332 9.08333 4.11665 9.05 3.94999C9.01667 3.78332 9 3.60832 9 3.42499C9 2.59165 9.29167 1.88332 9.875 1.29999C10.4583 0.716654 11.1667 0.424988 12 0.424988C12.8333 0.424988 13.5417 0.716654 14.125 1.29999C14.7083 1.88332 15 2.59165 15 3.42499C15 3.60832 14.9833 3.77915 14.95 3.93749C14.9167 4.09582 14.8667 4.25832 14.8 4.42499H15.15C15.5833 4.42499 15.9958 4.49165 16.3875 4.62499C16.7792 4.75832 17.1417 4.94999 17.475 5.19999C17.7083 5.36665 17.8417 5.58332 17.875 5.84999C17.9083 6.11665 17.8417 6.36665 17.675 6.59999C17.5083 6.83332 17.2917 6.96665 17.025 6.99999C16.7583 7.03332 16.5083 6.96665 16.275 6.79999C16.1083 6.66665 15.9333 6.57082 15.75 6.51249C15.5667 6.45415 15.3667 6.42499 15.15 6.42499C14.6167 6.42499 14.1875 6.57499 13.8625 6.87499C13.5375 7.17499 13.125 7.61665 12.625 8.19999C12.5417 8.29999 12.45 8.37499 12.35 8.42499C12.25 8.47499 12.1333 8.49999 12 8.49999C11.8667 8.49999 11.7458 8.47499 11.6375 8.42499C11.5292 8.37499 11.4333 8.29999 11.35 8.19999C10.8333 7.59999 10.4208 7.15415 10.1125 6.86249C9.80417 6.57082 9.38333 6.42499 8.85 6.42499C8.31667 6.42499 7.875 6.59999 7.525 6.94999C7.175 7.29999 7 7.74165 7 8.27499C7 8.97499 7.32917 9.70415 7.9875 10.4625C8.64583 11.2208 9.53333 12.1083 10.65 13.125C10.8833 13.325 11.0208 13.5708 11.0625 13.8625C11.1042 14.1542 11.025 14.4 10.825 14.6C10.6083 14.8167 10.3458 14.9125 10.0375 14.8875C9.72917 14.8625 9.45833 14.7417 9.225 14.525ZM3 19.275C3.28333 19.275 3.52083 19.1792 3.7125 18.9875C3.90417 18.7958 4 18.5583 4 18.275C4 17.9917 3.90417 17.7542 3.7125 17.5625C3.52083 17.3708 3.28333 17.275 3 17.275C2.71667 17.275 2.47917 17.3708 2.2875 17.5625C2.09583 17.7542 2 17.9917 2 18.275C2 18.5583 2.09583 18.7958 2.2875 18.9875C2.47917 19.1792 2.71667 19.275 3 19.275ZM12 4.42499C12.2833 4.42499 12.5208 4.32915 12.7125 4.13749C12.9042 3.94582 13 3.70832 13 3.42499C13 3.14165 12.9042 2.90415 12.7125 2.71249C12.5208 2.52082 12.2833 2.42499 12 2.42499C11.7167 2.42499 11.4792 2.52082 11.2875 2.71249C11.0958 2.90415 11 3.14165 11 3.42499C11 3.70832 11.0958 3.94582 11.2875 4.13749C11.4792 4.32915 11.7167 4.42499 12 4.42499ZM21.025 19.275C21.3083 19.275 21.5417 19.1792 21.725 18.9875C21.9083 18.7958 22 18.5583 22 18.275C22 17.9917 21.9042 17.75 21.7125 17.55C21.5208 17.35 21.2833 17.25 21 17.25C20.7167 17.25 20.4792 17.3458 20.2875 17.5375C20.0958 17.7292 20 17.9667 20 18.25C20 18.5333 20.1 18.775 20.3 18.975C20.5 19.175 20.7417 19.275 21.025 19.275Z" fill="#1C1B1F"/>
</g>
</svg>
