<svg width="24" height="25" viewBox="0 0 24 25" fill="none" xmlns="http://www.w3.org/2000/svg">
<mask id="mask0_164_29" style="mask-type:alpha" maskUnits="userSpaceOnUse" x="0" y="0" width="25" height="25">
<rect x="0.0078125" y="0.0976562" width="24" height="24" fill="#D9D9D9"/>
</mask>
<g mask="url(#mask0_164_29)">
<path d="M16.1828 13.0978H5.00781C4.72448 13.0978 4.48698 13.0019 4.29531 12.8103C4.10365 12.6186 4.00781 12.3811 4.00781 12.0978C4.00781 11.8144 4.10365 11.5769 4.29531 11.3853C4.48698 11.1936 4.72448 11.0978 5.00781 11.0978H16.1828L11.2828 6.19777C11.0828 5.99777 10.987 5.76443 10.9953 5.49777C11.0036 5.2311 11.1078 4.99777 11.3078 4.79777C11.5078 4.61443 11.7411 4.5186 12.0078 4.51027C12.2745 4.50193 12.5078 4.59777 12.7078 4.79777L19.3078 11.3978C19.4078 11.4978 19.4786 11.6061 19.5203 11.7228C19.562 11.8394 19.5828 11.9644 19.5828 12.0978C19.5828 12.2311 19.562 12.3561 19.5203 12.4728C19.4786 12.5894 19.4078 12.6978 19.3078 12.7978L12.7078 19.3978C12.5245 19.5811 12.2953 19.6728 12.0203 19.6728C11.7453 19.6728 11.5078 19.5811 11.3078 19.3978C11.1078 19.1978 11.0078 18.9603 11.0078 18.6853C11.0078 18.4103 11.1078 18.1728 11.3078 17.9728L16.1828 13.0978Z" fill="#1C1B1F"/>
</g>
</svg>
