<svg width="24" height="24" viewBox="0 0 24 24" fill="none" xmlns="http://www.w3.org/2000/svg">
<mask id="mask0_91_51" style="mask-type:alpha" maskUnits="userSpaceOnUse" x="0" y="0" width="24" height="24">
<rect width="24" height="24" fill="#D9D9D9"/>
</mask>
<g mask="url(#mask0_91_51)">
<path d="M8.8 10.9499L10.95 8.77494L9.55 7.34994L9.15 7.74994C8.96667 7.93328 8.7375 8.02911 8.4625 8.03744C8.1875 8.04578 7.95 7.94994 7.75 7.74994C7.55 7.54994 7.45 7.31244 7.45 7.03744C7.45 6.76244 7.55 6.52494 7.75 6.32494L8.125 5.94994L7 4.82494L4.825 6.99994L8.8 10.9499ZM17 19.1749L19.175 16.9999L18.05 15.8749L17.65 16.2499C17.45 16.4499 17.2167 16.5499 16.95 16.5499C16.6833 16.5499 16.45 16.4499 16.25 16.2499C16.05 16.0499 15.95 15.8166 15.95 15.5499C15.95 15.2833 16.05 15.0499 16.25 14.8499L16.625 14.4499L15.2 13.0499L13.05 15.1999L17 19.1749ZM4 20.9999C3.71667 20.9999 3.47917 20.9041 3.2875 20.7124C3.09583 20.5208 3 20.2833 3 19.9999V17.1749C3 17.0416 3.025 16.9124 3.075 16.7874C3.125 16.6624 3.2 16.5499 3.3 16.4499L7.375 12.3749L3.05 8.04994C2.76667 7.76661 2.625 7.41661 2.625 6.99994C2.625 6.58328 2.76667 6.23328 3.05 5.94994L5.95 3.04994C6.23333 2.76661 6.58333 2.62911 7 2.63744C7.41667 2.64578 7.76667 2.79161 8.05 3.07494L12.4 7.39994L16.175 3.59994C16.375 3.39994 16.6 3.24994 16.85 3.14994C17.1 3.04994 17.3583 2.99994 17.625 2.99994C17.8917 2.99994 18.15 3.04994 18.4 3.14994C18.65 3.24994 18.875 3.39994 19.075 3.59994L20.4 4.94994C20.6 5.14994 20.75 5.37494 20.85 5.62494C20.95 5.87494 21 6.13328 21 6.39994C21 6.66661 20.95 6.92078 20.85 7.16244C20.75 7.40411 20.6 7.62494 20.4 7.82494L16.625 11.6249L20.95 15.9499C21.2333 16.2333 21.375 16.5833 21.375 16.9999C21.375 17.4166 21.2333 17.7666 20.95 18.0499L18.05 20.9499C17.7667 21.2333 17.4167 21.3749 17 21.3749C16.5833 21.3749 16.2333 21.2333 15.95 20.9499L11.625 16.6249L7.55 20.6999C7.45 20.7999 7.3375 20.8749 7.2125 20.9249C7.0875 20.9749 6.95833 20.9999 6.825 20.9999H4ZM5 18.9999H6.4L16.2 9.22494L14.775 7.79994L5 17.5999V18.9999Z" fill="#1C1B1F"/>
</g>
</svg>
